
<svg width="883" height="433" viewBox="0 0 883 433" fill="none" xmlns="http://www.w3.org/2000/svg">
<path d="M464.642 256.356C463.35 256.973 462.059 257.59 460.599 258.32C460.43 258.039 460.094 257.59 459.532 256.692C459.925 256.412 460.43 256.075 460.88 255.794C461.553 255.57 462.227 255.345 463.013 255.121C463.069 255.289 463.126 255.738 463.182 256.299C463.575 256.131 463.912 255.963 464.249 255.794C464.417 255.963 464.529 256.187 464.642 256.356ZM465.259 279.816C464.473 279.423 463.687 279.086 462.901 278.693L462.845 278.637L462.901 278.693C462.115 281.331 460.767 280.096 459.42 278.862C460.543 278.805 461.722 278.693 462.845 278.637C463.182 278.525 463.575 278.413 463.968 278.244C463.687 277.851 463.463 277.458 463.182 277.066C463.294 276.953 463.463 276.841 463.575 276.785C464.249 277.571 464.922 278.356 465.54 279.198C465.484 279.367 465.372 279.591 465.259 279.816ZM464.586 288.627C463.687 288.571 462.845 288.29 461.778 288.122C462.676 286.494 463.631 285.821 465.035 286.494C465.484 286.719 465.652 287.505 465.765 288.066C465.765 288.178 464.979 288.683 464.586 288.627ZM463.013 312.985C463.687 314.108 464.136 314.95 464.586 315.679C464.866 315.623 465.147 315.567 465.428 315.511C465.203 315.679 465.035 315.848 464.81 315.96C464.754 315.848 464.698 315.735 464.642 315.623C464.305 315.679 463.968 315.735 463.519 315.848C463.294 315.006 463.182 314.22 463.013 312.985ZM461.61 367.931C461.273 367.819 461.16 367.201 460.936 366.865H466.888C465.821 368.156 463.238 368.604 461.61 367.931ZM479.128 365.405C477.219 366.696 476.265 366.472 475.31 364.395C476.826 364.844 477.725 365.069 479.128 365.405ZM457.96 265.223C460.43 266.963 460.43 266.963 458.746 269.04C455.995 267.244 455.995 267.244 457.96 265.223ZM458.634 312.312C457.286 312.648 455.882 312.985 454.815 311.807C454.872 311.526 454.872 311.301 454.928 311.021C456.163 311.245 457.455 311.414 458.69 311.638C458.69 311.807 458.634 312.031 458.634 312.312ZM440.553 330.496L446.842 293.117L453.187 330.103L440.553 330.496ZM438.364 295.979C440.666 294.857 441.283 291.265 444.709 292.893C443.136 294.24 441.62 295.587 439.88 297.102C439.711 296.934 439.206 296.541 438.364 295.979ZM442.294 272.07C442.406 272.968 442.575 273.866 442.687 274.764C442.294 274.708 441.508 274.764 441.508 274.652C441.34 273.866 441.34 273.025 441.283 272.183C441.62 272.127 441.957 272.127 442.294 272.07ZM446.898 268.31C447.572 269.096 448.078 268.703 448.583 268.086C449.481 266.907 450.043 267.412 450.548 268.591C449.369 269.04 448.246 269.489 446.786 270.05C446.674 269.32 446.561 268.871 446.505 268.478C446.674 268.366 446.842 268.254 446.898 268.31ZM451.334 256.468C450.604 257.085 450.043 257.478 449.032 258.264C448.92 257.085 448.864 256.243 448.751 254.896C449.93 255.626 450.548 256.019 451.334 256.468ZM433.366 361.308C433.029 360.466 432.749 359.625 432.412 358.783C432.636 358.727 432.861 358.614 433.086 358.558C433.703 359.007 434.377 359.456 435.332 360.13C434.826 360.41 434.096 360.859 433.366 361.308ZM428.257 367.65V359.232C428.425 359.232 428.594 359.176 428.762 359.176C429.492 360.579 430.222 361.926 431.008 363.385H428.481C432.524 365.349 428.594 366.247 428.257 367.65ZM430.166 350.196C430.39 350.42 430.615 350.589 430.896 350.813C430.278 351.543 429.66 352.272 428.987 352.946C428.987 352.946 428.481 352.553 428.2 352.272C428.818 351.543 429.492 350.869 430.166 350.196ZM429.773 253.662L407.537 374.273L433.086 373.487L436.005 356.482L457.623 355.808L460.543 372.645L486.259 371.86L463.968 252.651L429.773 253.662Z" fill="white"/>
<path d="M559.254 317.812C558.019 317.419 556.783 317.026 555.267 316.577C555.997 315.567 556.503 314.95 557.12 314.164C557.345 315.006 557.569 315.735 557.794 316.577C558.243 316.353 558.58 316.128 559.085 315.848C559.254 316.353 559.422 316.802 559.535 317.251C559.422 317.419 559.366 317.644 559.254 317.812ZM540.837 310.684C539.489 311.189 538.984 310.011 538.422 309.057C539.433 308.944 540.331 308.888 541.623 308.776C541.398 309.281 541.342 310.516 540.837 310.684ZM536.289 295.811C536.12 295.418 536.625 294.633 536.85 294.015C537.299 294.408 537.917 294.745 538.198 295.306C538.647 296.316 538.872 297.383 539.152 298.449C538.872 298.505 538.591 298.617 538.31 298.674C537.636 297.719 536.794 296.821 536.289 295.811ZM533.986 285.877C533.369 285.091 532.976 284.25 532.358 283.801C531.628 283.239 530.561 282.566 529.831 282.734C527.529 283.239 527.136 282.061 527.08 280.77C529.438 280.433 531.684 280.096 533.762 279.816C532.751 282.005 532.751 282.005 536.008 284.306C535.334 284.867 534.716 285.316 533.986 285.877ZM525.564 268.871H528.315C528.035 269.657 527.754 270.667 527.473 271.397C529.101 271.678 530.449 271.958 531.797 272.183C531.797 272.407 531.74 272.632 531.74 272.856C530.561 272.8 529.438 272.744 528.091 272.688C528.371 273.305 528.596 273.81 528.765 274.259C528.652 274.428 528.596 274.54 528.484 274.708C527.978 274.372 527.136 274.147 526.968 273.642C526.35 272.127 526.013 270.499 525.564 268.871ZM525.845 295.418C524.89 294.745 523.88 294.071 522.925 293.454C523.093 293.173 523.262 292.893 523.486 292.612C524.497 293.229 525.508 293.847 526.462 294.464C526.294 294.801 526.069 295.138 525.845 295.418ZM523.037 270.555C521.802 270.724 520.847 270.836 519.612 271.004C521.914 268.535 521.914 268.535 523.037 270.555ZM517.984 263.54C517.759 263.54 517.535 263.483 517.31 263.483V261.014C517.759 261.238 518.265 261.407 518.601 261.687C519.893 262.922 518.321 262.978 517.984 263.54ZM509.561 360.803C509.056 360.017 508.494 359.512 508.607 359.119C508.663 358.727 509.337 358.334 509.842 358.222C510.067 358.165 510.74 358.895 510.684 359.176C510.572 359.625 510.067 360.074 509.561 360.803ZM504.227 250.631C503.946 250.463 503.666 250.238 503.385 250.07C503.778 249.34 504.115 248.667 504.508 247.937C504.901 248.218 505.294 248.498 505.687 248.779C505.238 249.396 504.732 250.014 504.227 250.631ZM532.358 277.066C532.302 277.234 532.246 277.402 532.19 277.515C531.179 276.785 529.551 277.851 528.765 276.56C528.877 276.28 528.933 275.999 529.045 275.775C530.168 276.224 531.235 276.673 532.358 277.066ZM531.291 260.621C531.46 260.172 531.684 259.723 531.909 259.106C532.807 261.519 532.47 261.912 529.551 261.912C529.382 261.351 529.214 260.733 528.877 259.723C529.944 260.116 530.561 260.341 531.291 260.621ZM537.243 279.367C536.794 278.918 536.569 278.244 536.232 277.683C536.401 277.627 536.513 277.515 536.682 277.458C539.377 280.545 539.377 281.443 535.896 282.678C536.457 281.78 536.626 281.107 537.075 280.826C538.198 280.209 538.142 280.321 537.243 279.367ZM565.823 244.962C566.497 245.243 567.115 245.636 567.732 245.973C567.62 246.197 567.452 246.478 567.339 246.702C566.666 246.422 565.992 246.085 565.318 245.804C565.43 245.524 565.767 244.962 565.823 244.962ZM567.003 252.146C566.778 252.202 566.216 251.136 565.823 250.575C565.43 250.07 565.037 249.621 564.644 249.172C564.757 248.947 564.925 248.723 565.037 248.498C566.329 248.947 567.564 249.452 568.855 249.901V239.574L543.139 240.36V288.459L528.933 249.116C528.147 249.452 527.361 249.789 526.519 250.126C526.406 249.789 526.238 249.452 526.126 249.172C526.968 248.891 527.81 248.61 528.652 248.386L525.957 240.921L500.24 241.707V361.87L525.957 361.084V313.041L543.139 360.523L568.855 359.737V251.136C568.238 251.529 567.62 251.978 567.003 252.146Z" fill="white"/>
<path d="M688.903 365.462L692.104 365.349C692.16 365.293 692.16 365.237 692.216 365.181C691.486 364.507 690.7 363.89 689.914 363.217C689.689 363.89 689.353 364.564 688.903 365.462Z" fill="white"/>
<path d="M236 207.583C234.428 205.731 232.519 204.216 231.171 201.971C228.757 198.211 227.353 194.282 227.128 189.792C226.96 185.751 228.644 182.44 230.666 179.185C231.62 177.669 232.687 176.154 233.866 174.47C235.326 174.077 236.842 173.516 238.358 173.348C239.93 173.123 241.671 173.067 243.243 173.291C249.083 174.246 255.035 174.358 260.369 177.276C262.783 178.567 265.759 178.679 268.005 180.419C269.634 179.914 270.532 181.093 271.318 182.103C272.778 184.067 275.024 185.134 277.045 185.583C280.246 186.312 282.716 188.052 285.131 189.736C288.331 192.037 290.802 195.236 294.003 198.379C291.363 199.894 289.23 201.298 286.928 202.532C283.334 204.384 280.47 207.135 277.438 209.604C275.024 211.512 272.104 211.905 269.577 213.42C265.142 216.058 260.313 217.461 255.035 217.181C252.957 217.012 250.823 217.742 248.69 217.967C248.128 218.023 247.567 217.967 246.5 217.967C249.195 216.114 251.89 215.553 253.743 213.477C254.136 212.971 254.978 212.579 255.596 212.579C260.425 212.747 262.559 209.267 264.917 205.788C264.917 204.104 264.805 202.308 264.917 200.568C265.142 197.481 263.626 195.124 261.829 192.935C261.043 192.037 260.144 191.251 259.302 190.409C257.954 189.006 256.27 188.277 254.305 188.445C254.192 188.445 254.024 188.445 253.855 188.445C245.04 188.333 243.973 188.557 234.821 192.093C234.484 193.047 234.259 193.945 233.866 194.843C233.529 195.741 233.08 196.583 232.462 197.874C233.024 198.155 233.698 198.491 234.933 199.053C237.628 198.604 240.436 199.838 242.906 202.532C244.759 204.665 245.601 206.854 245.04 209.885C244.366 210.165 243.412 210.895 242.85 210.67C240.436 209.997 237.797 209.66 236 207.583ZM209.329 218.921C208.767 218.921 208.15 218.808 207.7 218.584C203.826 216.844 199.952 214.992 196.021 213.196C194.393 212.466 192.765 211.737 191.136 211.007C186.307 208.818 182.04 205.675 177.604 202.813C176.088 201.859 174.684 200.68 172.775 199.221C177.885 194.563 182.04 190.185 186.813 186.537C190.855 183.45 195.572 181.205 200.008 178.623C202.984 178.848 204.837 175.761 207.813 175.929C209.273 174.358 211.069 175.368 212.978 174.919C212.698 177.725 210.283 178.343 209.216 180.251C209.385 181.093 209.834 182.159 209.666 183.113C209.553 184.18 208.767 185.134 208.486 186.2C208.262 187.154 208.43 188.221 208.318 189.231C208.15 190.634 208.711 192.037 207.588 193.44C207.083 194.058 207.195 195.517 207.869 196.695C208.599 197.986 208.823 199.558 209.16 201.073C209.497 202.588 209.722 204.104 210.059 205.619C210.564 207.471 210.676 209.492 212.361 210.951C214.214 212.635 214.045 215.329 215.449 217.237C215.73 217.63 215.954 218.135 216.404 218.921C214.045 218.921 211.687 218.921 209.329 218.921ZM256.045 234.074C261.38 231.829 267.163 230.763 272.273 227.957C275.305 226.273 278.281 224.477 281.593 223.411C285.805 222.064 289.454 219.931 292.88 217.181C294.452 215.946 295.855 214.262 297.652 213.589C300.572 212.522 302.313 210.334 304.39 208.313C305.401 207.415 306.243 205.675 307.254 205.619C310.791 205.282 311.858 202.196 314.048 200.343C315.059 199.445 315.452 197.706 315.957 196.808C315.115 195.348 314.666 194.282 313.936 193.44C312.139 191.195 310.454 188.726 308.208 186.93C306.973 186.032 305.794 184.909 304.559 183.955C303.211 182.945 301.751 181.991 300.516 180.756C297.821 178.118 294.62 176.154 291.869 173.684C286.591 169.026 279.853 167.118 274.182 163.414C266.208 161.561 258.684 157.857 250.43 157.128C248.297 155.107 245.489 156.679 242.962 155.668C240.66 154.77 237.684 155.5 235.045 155.276C232.406 154.995 229.936 155.893 227.409 156.23C224.545 156.51 221.569 156.398 218.874 157.24C216.123 158.026 213.315 158.699 210.564 159.765C207.869 160.832 205.005 161.505 202.422 162.74C192.484 167.342 183.331 173.123 174.572 179.746C171.821 181.822 169.294 184.123 166.599 186.256C164.016 188.221 161.433 190.522 159.805 193.609C158.401 196.302 156.492 198.772 154.92 201.185C154.246 204.946 155.313 207.92 158.232 210.165C159.58 211.232 160.928 212.242 162.275 213.308C163.735 214.487 165.139 215.665 166.655 216.788C171.315 220.155 175.976 223.354 181.142 226.048C184.847 227.957 188.497 229.921 192.372 231.324C195.123 232.334 197.874 233.513 200.626 233.962C204.556 234.523 208.543 235.59 212.417 235.646C217.077 235.758 221.682 236.937 226.286 236.712C231.396 236.488 236.561 237.442 241.559 235.87C246.556 236.544 251.16 234.018 256.045 234.074Z" fill="white"/>
<path d="M865.158 279.367C864.316 280.321 863.417 280.265 862.238 279.311C862.743 278.862 863.249 278.188 863.866 277.964C864.428 277.739 865.158 277.851 865.775 277.851C865.551 278.356 865.495 278.974 865.158 279.367ZM867.291 286.438C867.067 287.336 866.618 288.178 866.225 289.076C866 289.076 865.775 289.132 865.551 289.132C865.27 288.683 864.709 288.066 864.821 287.785C865.214 286.943 865.888 286.214 866.449 285.484C866.73 285.765 867.348 286.214 867.291 286.438ZM873.468 340.823C873.749 341.047 874.254 341.384 874.198 341.44C873.917 342.058 873.58 342.619 873.075 343.405C872.682 342.843 872.233 342.451 872.289 342.338C872.57 341.833 873.019 341.328 873.468 340.823ZM859.262 271.565C859.88 271.341 860.553 271.06 861.171 270.836C861.003 270.611 860.834 270.443 860.666 270.218C861.283 270.443 861.957 270.724 862.575 270.948C862.575 271.116 862.631 271.341 862.631 271.509C861.62 271.79 860.554 272.071 859.543 272.351C859.431 272.071 859.374 271.846 859.262 271.565ZM856.342 276.617C856.342 276.448 856.342 276.28 856.342 276.055C857.128 275.999 857.971 275.775 858.644 275.999C859.037 276.111 859.094 277.122 859.431 278.132C857.971 277.402 857.128 277.009 856.342 276.617ZM856.23 337.736L839.048 338.297V269.601L856.23 269.04V337.736ZM836.128 261.575C835.567 261.856 835.118 262.305 834.444 262.754C834.163 262.136 833.995 261.687 833.826 261.295C833.939 261.126 833.939 261.014 833.995 261.014C835.005 260.789 836.016 260.509 837.083 260.341C837.308 260.284 837.588 260.789 837.813 261.014C837.139 261.238 836.578 261.351 836.128 261.575ZM830.738 296.485C830.008 296.765 829.166 296.99 828.38 297.214C828.267 296.878 828.155 296.485 828.043 296.148C828.829 295.811 829.615 295.531 830.401 295.194C830.513 295.643 830.794 296.485 830.738 296.485ZM855.388 253.718C854.658 254.56 854.04 255.289 853.423 256.019C853.254 255.065 853.086 254.111 852.861 252.876C853.816 253.213 854.433 253.381 855.388 253.718ZM848.088 243.615C848.088 243.672 848.088 243.728 848.144 243.84C847.19 244.401 846.291 245.019 845.112 245.692C844.944 244.906 844.832 244.457 844.663 243.84C844.102 244.121 843.596 244.345 842.698 244.794C842.473 244.513 842.249 244.177 841.968 243.84L830.513 244.177L813.332 261.912V347.726L820.07 354.124C820.126 354.068 820.238 353.956 820.294 353.9C820.575 354.181 821.136 354.63 821.08 354.798C821.024 354.854 821.024 354.91 820.968 355.022L830.569 364.171L864.877 363.104L882.059 345.65V259.723L864.877 243.054L848.088 243.615Z" fill="white"/>
<path d="M209.946 379.549C208.992 378.146 208.15 376.967 207.363 375.788C208.823 376.63 210.508 377.304 209.946 379.549ZM207.139 358.614L189.957 359.176V345.425C189.564 345.313 189.171 345.257 188.722 345.144C189.115 344.415 189.508 343.91 189.957 343.629V337.736L207.139 337.175V358.614ZM191.698 373.038C191.642 372.926 191.585 372.814 191.529 372.702C191.192 372.758 190.855 372.814 190.406 372.926C190.294 372.028 190.125 371.242 189.957 370.008C190.631 371.13 191.08 371.972 191.529 372.702C191.81 372.645 192.091 372.589 192.371 372.533C192.091 372.758 191.922 372.87 191.698 373.038ZM186.363 335.884C187.486 335.828 188.666 335.716 189.789 335.659C190.125 335.547 190.519 335.435 190.912 335.267C190.631 334.874 190.406 334.481 190.125 334.088C190.238 333.976 190.406 333.863 190.519 333.807C191.192 334.593 191.866 335.379 192.484 336.221C192.371 336.445 192.259 336.614 192.147 336.838C191.361 336.445 190.575 336.108 189.789 335.716L189.732 335.659L189.789 335.716C189.059 338.353 187.711 337.175 186.363 335.884ZM183.331 425.122C183.275 424.841 183.219 424.561 183.163 424.224C184.005 423.999 184.847 423.775 185.69 423.55L185.97 424.729C185.072 424.841 184.174 424.953 183.331 425.122ZM181.871 368.043C183.107 368.268 184.398 368.436 185.634 368.661C185.634 368.885 185.577 369.11 185.577 369.334C184.23 369.671 182.826 370.008 181.759 368.829C181.759 368.548 181.815 368.324 181.871 368.043ZM180.973 424.617C177.211 424.561 177.211 424.561 177.885 422.821C178.839 422.877 179.738 422.933 180.973 422.989V424.617ZM173.674 327.129C173.561 326.399 173.449 325.95 173.393 325.557C173.561 325.501 173.786 325.389 173.786 325.389C174.46 326.174 174.965 325.782 175.47 325.164C176.369 323.986 176.93 324.491 177.436 325.669C176.313 326.118 175.134 326.567 173.674 327.129ZM166.823 354.124C166.655 354.012 166.093 353.619 165.307 353.058C167.609 351.936 168.227 348.344 171.652 349.915C170.136 351.262 168.564 352.609 166.823 354.124ZM169.238 329.093C169.35 329.991 169.519 330.889 169.631 331.787C169.238 331.731 168.452 331.787 168.452 331.675C168.283 330.889 168.283 330.047 168.227 329.205C168.564 329.205 168.901 329.149 169.238 329.093ZM184.904 322.302C187.374 324.042 187.374 324.042 185.69 326.118C182.938 324.322 182.938 324.322 184.904 322.302ZM187.823 312.817C188.497 312.592 189.171 312.368 189.957 312.143C190.013 312.312 190.069 312.761 190.125 313.322C190.462 313.154 190.855 312.985 191.192 312.817C191.305 312.985 191.417 313.21 191.529 313.378C190.238 313.995 188.946 314.613 187.486 315.342C187.318 315.062 186.981 314.613 186.42 313.715C186.869 313.49 187.374 313.154 187.823 312.817ZM176.2 312.312C177.043 312.817 177.604 313.154 178.278 313.49C177.548 314.108 176.986 314.501 175.976 315.286C175.863 314.22 175.807 313.378 175.695 312.312L164.184 312.648V419.958C166.037 420.744 164.016 422.484 164.858 423.55H166.88L166.823 423.663L166.88 423.55C167.104 423.494 167.385 423.438 168.003 423.214C167.16 422.821 166.655 422.596 165.757 422.203C166.206 421.418 166.486 420.239 167.048 420.071C167.778 419.846 168.732 420.463 169.519 420.969C172.719 420.688 172.719 420.688 175.976 422.821C175.021 422.989 174.179 423.101 172.944 423.326C173.561 423.999 173.954 424.392 174.628 425.122C173.505 425.01 172.719 424.897 171.933 424.841C171.989 424.729 172.101 424.617 172.158 424.504C171.371 423.831 170.642 423.214 169.855 422.54C169.519 423.27 169.182 423.943 168.732 424.953C168.227 424.617 167.497 424.168 166.767 423.663C166.318 424.729 165.7 425.515 164.353 425.066C164.24 425.01 164.128 424.953 164.072 424.897V432.811L189.789 432.025V425.234C189.283 425.178 188.834 425.122 188.385 424.953C188.048 424.841 187.936 424.224 187.711 423.887H189.789V384.881L215.505 384.095L232.687 366.36V327.746L215.505 311.077L176.2 312.312Z" fill="white"/>
<path d="M507.035 224.252C508.158 223.579 509.73 223.916 511.19 223.579C513.604 222.962 516.131 222.12 518.77 222.344C521.128 222.513 523.599 222.681 526.069 221.671C527.922 220.885 530.224 221.39 532.414 220.829C534.492 220.212 536.906 220.043 539.152 219.931C542.016 219.763 544.655 218.808 547.069 218.696C546.002 212.522 544.936 206.573 543.981 200.624C543.869 200.063 544.43 199.333 544.655 198.66C544.262 198.435 543.363 198.267 543.083 197.762C542.353 196.303 541.847 194.675 541.23 193.16C539.938 190.129 539.377 186.817 537.636 183.899C537.131 183.057 535.952 182.328 535.952 181.486C535.895 177.052 533.088 173.291 533.032 169.082C530.73 169.924 528.596 170.766 526.35 171.439C523.936 172.113 521.409 172.394 519.107 173.348C516.692 174.246 514.39 175.649 512.088 176.883C510.965 177.501 509.898 178.399 508.775 178.567C506.866 178.792 505.631 179.746 504.395 181.037C503.16 182.271 501.756 183.113 499.904 183.169C498.949 183.169 497.938 183.618 497.152 184.011C492.716 186.256 487.944 187.435 483.002 187.547C481.093 187.603 479.128 187.547 477.387 187.547C474.636 189.792 471.379 190.129 468.404 191.139C465.259 192.205 461.497 192.093 459.756 195.292C457.342 195.685 455.264 196.359 453.187 196.415C449.425 196.471 445.831 196.527 442.294 198.211C440.16 199.165 437.746 199.389 435.444 200.063C429.716 201.69 423.877 202.981 418.655 205.9C418.262 206.124 417.869 206.293 417.476 206.293C414.612 206.237 411.917 207.247 409.334 208.145C406.47 209.211 403.719 208.931 401.024 208.874C400.855 207.527 400.912 206.461 400.518 205.563C398.778 200.624 396.981 195.741 394.623 191.027C393.837 189.455 393.331 187.659 392.826 185.976C391.703 182.552 390.861 179.016 389.457 175.761C387.604 171.327 385.246 167.118 383.224 162.852C383.842 162.459 384.628 162.067 385.246 161.561C386.874 160.046 388.39 158.362 390.018 156.847C392.433 154.546 395.24 153.087 398.329 152.638C403.607 148.597 408.885 145.061 415.005 142.816C417.363 141.918 419.553 140.683 421.687 139.448C426.572 136.642 430.39 132.433 434.77 129.009C439.711 125.137 443.585 119.917 449.762 117.672C450.267 117.504 450.66 116.886 450.997 116.437C452.906 114.192 455.489 112.677 456.724 109.871C457.061 109.141 457.904 108.58 458.633 108.019C459.307 107.514 460.037 107.121 460.767 106.672C461.385 106.279 462.059 105.886 463.013 105.325C460.711 103.36 458.746 101.621 457.005 100.105V97.8603C455.545 96.9623 454.478 96.3449 453.468 95.7275C451.559 94.4928 451.671 91.7427 449.93 90.5641C448.246 89.3855 446.056 88.7681 444.708 87.0282C443.361 85.2884 441.339 84.5026 439.43 83.4924C437.858 82.6505 436.286 82.5944 434.882 83.3801C431.345 85.4006 427.414 86.916 424.719 90.059C422.754 92.3039 420.508 94.2122 418.486 96.3449C414.949 100.105 410.794 102.968 406.695 105.998C400.462 110.601 394.454 115.427 388.559 120.478C385.583 120.759 382.551 121.264 380.473 123.565C377.048 127.326 372.612 129.795 368.513 132.601C366.267 134.117 363.628 135.295 360.933 134.902C357.452 131.423 354.139 128.167 350.938 124.856C349.029 122.836 346.783 121.32 344.537 119.749C343.358 118.963 342.01 118.121 341.281 116.943C340.326 115.315 339.203 114.08 337.518 113.182C335.89 112.284 334.599 111.218 332.633 110.713C330.163 110.152 327.917 108.692 325.446 107.626C326.12 106.335 326.682 105.269 327.468 103.809C327.468 103.024 327.524 101.845 327.412 100.666C327.075 95.5592 329.208 91.5182 332.746 88.1507C336.059 84.9516 338.641 81.2474 340.887 77.2065C342.235 74.7931 343.358 72.1553 345.379 70.0787C349.31 66.1499 352.117 61.4355 354.532 56.4965C355.206 55.0934 355.374 53.4658 356.216 52.2872C357.789 49.7616 359.642 47.3483 361.551 45.1033C364.414 41.6236 366.941 37.9755 368.794 33.3733C367.446 32.812 366.099 32.4753 364.976 31.7457C363.628 30.9038 362.561 29.6691 361.326 28.715C359.754 27.4802 358.125 26.3016 356.497 25.1791C355.486 24.4495 354.363 23.4954 353.24 23.4393C351.556 23.3831 350.433 22.3168 350.152 21.3626C349.591 19.3422 347.906 18.9493 346.615 17.9952C345.267 17.0411 343.583 16.4237 342.347 15.4135C338.473 12.3266 334.767 9.01527 330.219 7.27541C328.928 7.72441 327.805 8.11728 326.513 8.56628C326.85 11.8776 325.839 14.9645 324.829 18.0513C324.323 19.6228 324.155 21.1943 322.246 21.8678C321.74 22.0361 321.404 22.9903 321.179 23.6076C318.989 30.1742 316.912 36.7407 314.385 43.1389C313.543 45.2717 312.869 47.3483 311.184 48.9759C310.342 49.7616 310.005 51.1647 309.5 52.2872C307.703 56.6088 307.591 61.5477 304.446 65.4203C304.278 65.5887 304.222 65.9255 304.109 66.2061C302.93 70.4154 301.358 74.6809 300.684 79.0586C300.123 82.5383 297.764 85.0078 296.81 88.2068C296.417 89.5538 290.914 93.707 288.949 94.8295C284.738 92.4723 280.077 91.0692 275.529 89.4416C269.858 87.4772 264.355 84.8394 258.179 85.0078C256.438 83.3801 254.024 84.8394 252.339 83.9975C250.206 82.9311 248.016 83.0434 245.994 83.324C244.085 83.5485 242.401 83.6046 240.885 82.875C239.93 80.7423 238.976 78.7779 240.436 76.6452C240.716 76.2523 240.604 75.5227 240.66 74.9615C240.885 70.1348 240.099 65.3081 241.502 60.5375C241.783 59.5273 241.559 58.4609 241.559 57.3945C241.559 56.2159 241.559 55.0373 241.559 53.8587C241.559 52.7923 241.502 51.726 241.615 50.7157C241.727 49.6494 242.569 48.1901 242.12 47.685C240.997 46.4503 242.569 46.0013 242.569 45.1033C242.569 37.6387 242.064 30.1181 243.243 22.6535C243.748 19.6228 243.299 16.4237 243.355 13.2807C243.355 10.3061 243.299 7.38766 243.355 4.80594C238.863 2.95383 234.54 3.7957 230.385 3.5712C228.869 1.94359 226.904 1.77522 224.826 1.77522C220.896 1.83134 216.965 2.16809 213.147 0.877228C211.687 0.372108 210.339 -0.582007 208.262 0.484357C207.756 3.68345 206.69 7.16317 206.802 10.5868C206.97 19.6789 206.016 28.8272 207.532 37.9194C208.206 42.2971 207.588 46.8431 207.644 51.3331C207.7 55.8231 206.409 60.2569 206.577 64.803C206.633 66.3183 206.409 68.3388 205.679 69.7419C204.893 71.4818 205.567 73.3339 204.781 74.737C202.759 78.4412 203.321 82.7067 201.917 86.6354C198.997 86.9721 196.021 87.5334 193.045 87.5334C190.35 87.5334 188.273 88.4313 186.532 90.3396C183.444 89.7783 180.692 90.9569 177.941 92.0794C175.19 93.2019 172.438 94.156 169.238 93.7632C168.845 90.2835 167.216 87.3089 166.374 84.1098C165.027 79.2269 162.781 74.6247 160.815 69.9103C159.805 67.4969 158.064 65.1958 157.671 62.7264C156.829 57.7313 154.583 53.1291 153.909 48.134C153.684 46.4503 152.449 44.8788 151.382 42.6899C150.203 33.6539 147.283 24.3372 143.69 14.9083C140.321 16.1431 136.839 15.9747 133.414 16.1992C132.123 16.3114 130.494 16.9849 129.765 18.6687C128.585 21.3065 125.89 22.0361 123.532 23.327C121.174 24.6179 118.759 23.776 116.345 24.3934C114.043 25.0669 111.347 25.3475 108.989 24.8424C107.08 24.4495 105.676 25.6842 103.767 24.7301C103.88 26.2455 103.655 27.368 103.992 28.2098C106.125 32.8682 108.203 37.5265 111.179 41.7919C113.032 44.4298 114.492 47.2921 115.952 50.0984C116.738 51.5576 117.019 53.1852 117.861 54.7006C120.163 58.7976 122.297 63.007 124.43 67.1602C131.168 80.4617 137.906 93.7632 144.644 107.065C143.69 110.601 139.984 111.386 137.401 113.519C134.369 113.294 132.516 115.596 130.382 117.055C126.171 119.973 122.24 123.229 118.984 125.754C116.625 125.586 114.941 124.912 114.043 125.473C112.583 126.428 111.404 125.081 111.291 124.856C109.944 121.938 106.799 120.535 105.283 117.953C103.655 115.259 101.184 113.407 99.1629 111.106C99.1068 110.993 98.9383 110.881 98.826 110.769C96.187 106.616 92.425 103.304 89.2806 99.544C86.0239 95.5592 81.7004 92.5845 78.8367 88.2068C77.6014 86.2986 75.9169 84.671 74.3447 82.9873C73.0533 81.6403 71.3127 80.4617 69.7405 79.1147C68.1121 77.6555 66.3153 76.4207 64.7431 74.9615C63.6202 73.839 62.1041 73.8951 61.1496 74.4564C59.4089 75.5788 57.2752 76.084 55.8153 77.8238C53.5694 80.4617 50.5373 82.1454 47.8421 84.2781C44.3046 87.0282 40.0934 89.4416 38.4651 94.2683C42.9571 98.7582 47.5613 103.08 52.7271 106.952C58.1736 111.049 63.8448 114.81 69.3474 118.795C72.7164 121.208 76.5346 123.172 79.8474 125.754C83.5533 128.504 87.5399 130.918 91.2458 133.724C93.8287 135.632 96.2431 137.709 98.433 140.01C100.623 142.255 102.532 144.893 104.497 147.306C105.564 150.112 103.599 151.964 102.195 153.816C98.433 158.587 95.2886 163.75 92.0881 168.914C91.4143 169.98 90.5159 170.878 89.7859 171.832C88.8875 171.664 88.2699 171.664 87.8207 171.327C85.9116 170.092 83.8341 169.082 82.2619 167.511C80.3528 165.659 78.7244 166.051 76.5907 167.342C75.0185 166.164 73.3902 164.985 71.9303 163.919C69.9651 164.929 67.8314 165.041 66.3715 164.143C64.2378 162.852 61.8795 162.516 59.6897 161.954C53.3448 160.327 47.056 158.643 40.7672 156.847C38.3528 156.117 35.433 153.985 32.794 156.679C32.064 155.556 31.5025 154.658 30.8287 153.592C28.6389 154.041 26.5613 154.434 24.6523 154.827C23.9223 154.041 23.3608 153.536 23.0239 153.199C20.7218 152.75 18.6442 152.189 16.5667 152.076C14.1522 151.908 11.8501 151.235 9.60412 150.505C7.58273 149.831 6.90894 150.224 6.23514 152.413C6.06669 152.974 5.84209 153.48 5.61749 153.929C4.66295 156.23 3.1469 158.419 2.81001 160.776C2.47311 163.357 1.35011 165.659 1.06936 168.072C0.844766 170.092 -0.0536295 171.888 0.00252027 173.909C0.05867 175.985 0.00252027 178.062 0.00252027 180.083C0.451718 180.588 0.900916 180.981 1.46241 181.542C3.87685 181.037 6.57204 182.159 9.04263 180.644C9.37952 180.419 10.3902 180.644 10.6148 180.924C12.0186 183.057 14.7137 181.879 16.3982 183.282C21.0025 183.169 25.3822 185.078 29.9865 185.078C30.4918 185.078 30.9972 185.527 31.5025 185.639C34.3661 186.368 37.1736 187.379 40.0373 187.659C43.8555 187.996 47.449 189.736 51.3234 189.511C52.3902 191.307 54.5239 189.904 56.0399 191.195C57.2752 192.205 59.5774 191.869 61.318 192.318C62.8902 192.767 64.5185 193.272 65.9784 194.001C69.2351 195.741 73.1656 196.246 75.9731 198.828C75.9731 199.838 76.31 200.961 75.9169 201.578C72.9972 206.237 72.4357 211.737 70.7512 216.844C69.4036 220.661 69.0105 224.758 67.7191 228.574C65.81 234.13 65.4731 239.855 64.4624 245.524C64.0694 247.825 64.4062 250.238 64.4062 252.483C65.1923 253.83 66.2592 253.942 67.5506 253.942C70.8073 253.83 74.2886 253.213 77.3207 254.111C79.7351 254.784 81.925 254.447 84.1709 254.784C86.6415 255.121 88.7752 253.942 91.1335 253.1C92.6496 254.335 94.2217 255.57 95.6816 256.805C95.6816 257.703 95.4009 258.713 95.7378 259.162C97.2538 261.126 95.9624 263.483 96.9169 265.392C98.0961 267.693 97.1977 270.05 97.4784 272.351C97.7592 274.596 96.9169 276.504 95.1201 278.188C93.8848 277.515 92.4811 278.356 90.9651 277.515C89.6736 276.841 87.5399 277.122 85.9677 277.627C83.8902 278.244 81.7565 278.413 80.0159 277.739C78.6683 277.178 77.4891 277.458 76.2538 277.178C73.5587 276.56 71.2004 278.188 68.5613 278.076C65.7538 277.964 62.8902 278.02 60.0827 278.076C59.802 278.076 59.5774 278.244 59.2966 278.3C58.9597 281.163 58.1175 283.857 58.1175 286.775C58.0613 289.862 58.9036 292.724 59.3528 295.699C60.4758 295.867 61.5426 296.092 62.6656 296.316C66.0907 297.046 69.5159 297.832 72.941 298.561C74.457 298.898 75.9731 299.179 77.4891 299.459C79.0052 299.796 80.6335 299.796 81.9811 300.469C84.3394 301.48 86.9223 301.929 89.3367 301.985C91.4143 302.041 93.3795 302.602 95.1763 303.163C96.2431 303.5 97.2538 303.893 98.433 303.949C101.858 304.174 105.283 304.061 108.821 304.623C113.313 305.352 117.692 306.306 121.96 307.653C123.7 308.215 126.115 308.215 127.406 310.46C124.936 311.919 122.858 313.771 120.444 314.444C118.535 315.006 116.625 315.735 115.109 316.633C110.168 319.608 105.508 323.031 100.735 326.343C96.2993 329.43 86.6977 334.2 81.1389 336.221C77.9945 337.343 75.187 339.139 72.6603 340.935C72.0426 346.043 73.2779 350.476 75.4677 354.742C75.6923 355.191 75.9169 355.696 76.0854 356.257C76.8715 358.671 77.433 358.895 79.7913 357.997C81.7565 357.267 83.3287 355.808 85.5747 355.752C87.0346 355.696 88.4945 354.854 90.1228 354.854C91.302 354.854 92.4811 354.63 93.7164 354.293C93.8287 354.237 93.8848 354.181 94.0533 354.124C100.96 352.16 107.698 349.578 114.492 347.446C120.5 344.134 126.283 340.991 132.123 337.792C132.628 337.512 133.077 337.175 133.583 337.006C136.839 336.108 139.366 334.256 141.5 331.955C141.107 330.945 140.77 330.103 140.489 329.374C140.208 328.588 139.928 327.802 139.815 326.96C139.31 323.088 136.559 319.776 136.839 315.679C135.548 313.827 136.727 311.245 135.773 309.898C134.481 308.102 135.492 306.25 134.537 304.51C133.639 302.883 133.976 300.469 134.257 298.449C134.706 294.745 133.246 291.321 133.302 287.673C131.393 286.102 132.572 284.25 133.414 283.127C134.65 281.443 134.144 280.209 133.302 278.862C132.572 277.851 131.674 276.953 130.775 275.943C124.823 279.03 118.815 277.964 112.583 277.907C113.2 274.764 112.021 271.734 113.65 268.984C113.93 268.535 113.93 267.637 113.65 267.244C112.19 265.279 112.976 263.034 112.807 260.902C112.527 257.59 112.863 254.335 112.134 250.968C111.291 247.264 111.909 243.279 111.965 239.406C111.965 239.013 112.47 238.62 112.695 238.227C112.246 237.778 111.965 237.273 111.628 237.217C108.596 236.544 105.508 235.421 102.588 235.421C97.8715 235.421 93.3233 233.906 88.6629 234.355C87.5399 234.467 86.3608 234.355 84.7324 234.355C85.2378 232.447 85.5185 230.987 85.9677 229.584C87.2592 225.207 88.4945 220.829 90.2913 216.62C92.3688 211.681 94.5025 206.742 96.58 201.803C99.3875 195.124 103.767 189.343 106.519 182.664C106.743 182.159 107.024 181.654 107.361 181.205C110 177.613 112.695 174.021 115.896 170.822C122.802 163.863 130.101 157.24 135.885 149.158C137.12 147.418 138.748 146.183 141.107 145.678C143.746 145.117 146.273 143.826 147.789 141.469C148.799 139.897 150.259 138.775 151.663 137.877C153.46 136.754 154.807 135.688 155.762 133.724C156.548 132.096 157.783 130.469 159.187 129.402C162.275 126.877 165.476 124.519 168.901 122.555C171.484 121.096 174.46 120.029 177.379 119.244C181.984 118.009 186.42 116.157 191.361 116.157C192.035 116.157 192.708 115.876 193.382 115.652C197.762 114.024 202.142 112.396 206.465 110.601C208.599 109.759 210.62 108.917 212.978 108.973C214.214 109.029 215.449 109.029 216.797 108.524C219.66 107.458 222.692 106.56 225.724 106.447C234.147 106.167 242.625 106.335 250.599 106.335C252.227 107.401 253.406 108.187 254.305 108.861C256.775 109.029 259.133 108.692 261.043 109.478C263.289 110.32 265.535 109.366 267.724 110.713C270.251 112.172 273.227 113.126 276.315 112.621C276.54 112.565 276.877 112.733 277.101 112.845C281.537 114.417 286.254 115.147 290.521 117.111C293.441 118.402 296.642 119.468 298.944 121.489C302.088 124.183 306.355 124.912 309.331 127.831C312.869 128.392 315.62 130.581 318.708 132.096C319.214 132.321 320.056 132.377 320.168 132.714C321.684 136.754 325.783 136.923 328.928 138.494C329.882 138.999 331.174 139.224 331.904 139.954C334.318 142.648 336.789 145.342 340.045 147.137C340.775 147.587 341.505 148.26 341.898 148.99C343.358 151.796 345.941 153.592 347.906 155.893C348.636 156.735 349.142 157.801 349.815 158.643C352.454 162.123 354.195 166.444 358.35 168.016C359.529 175.649 363.909 181.373 367.559 187.659C366.885 191.644 370.085 194.17 372.051 197.201C372.107 199.445 371.658 201.803 372.949 203.935C375.195 207.752 375.981 211.961 376.711 216.283C377.16 219.033 377.329 221.727 377.497 224.421C377.553 225.038 378.002 225.712 378.227 226.329C379.125 229.135 380.024 231.885 380.192 234.972C380.473 239.069 381.259 243.11 384.965 245.411C385.92 244.85 386.706 244.233 387.66 243.952C390.299 243.166 392.882 241.651 395.858 242.1C399.059 240.023 402.933 240.192 406.414 239.631C410.738 238.901 415.23 238.452 419.441 237.442C424.887 236.151 430.278 235.814 435.724 235.87C436.623 235.87 437.746 236.207 438.363 235.814C439.711 234.804 441.059 235.084 442.518 234.916C444.035 234.748 445.551 234.074 447.067 234.13C450.997 234.187 454.815 232.559 458.746 233.176C459.251 233.232 459.869 233.12 460.43 232.952C463.238 231.942 466.101 231.212 469.133 231.436C471.379 231.549 473.625 231.493 475.871 231.436C476.826 231.436 477.724 231.268 478.735 230.931C481.486 229.921 484.462 229.64 487.214 228.742C491.144 227.508 495.131 226.946 499.061 225.992C500.297 225.656 501.42 225.207 502.711 225.207C504.283 225.038 505.631 225.15 507.035 224.252Z" fill="white"/>
<path d="M647.633 247.376C647.072 247.712 646.454 248.049 645.893 248.386C645.668 248.105 645.444 247.881 645.275 247.6C645.724 247.207 646.117 246.702 646.679 246.422C646.791 246.422 647.297 247.039 647.633 247.376ZM643.478 250.294C642.973 250.519 642.299 250.294 641.682 250.294C641.738 249.621 641.682 248.891 641.906 248.33C642.018 248.049 642.692 248.049 643.141 247.937C643.984 246.029 641.85 246.534 641.064 245.58C642.692 245.019 644.096 244.57 645.556 244.121C645.668 244.233 645.724 244.345 645.837 244.457C645.219 244.906 644.545 245.355 644.208 245.636C644.264 246.927 644.321 248.049 644.377 249.172C644.04 249.508 643.871 250.126 643.478 250.294ZM612.484 280.433C611.024 279.703 610.182 279.311 609.396 278.918C609.396 278.749 609.396 278.581 609.396 278.356C610.182 278.3 611.024 278.076 611.698 278.3C612.035 278.413 612.147 279.423 612.484 280.433ZM606.476 258.32C606.307 257.366 606.139 256.412 605.914 255.177C606.869 255.514 607.486 255.682 608.441 256.019C607.767 256.861 607.093 257.59 606.476 258.32ZM626.521 343.124C626.802 343.349 627.307 343.685 627.251 343.741C626.97 344.359 626.633 344.92 626.128 345.706C625.735 345.145 625.286 344.752 625.342 344.639C625.679 344.134 626.128 343.685 626.521 343.124ZM598.166 247.993C597.997 247.207 597.885 246.758 597.716 246.141C597.155 246.422 596.65 246.646 595.751 247.095C595.414 246.702 595.021 246.141 594.572 245.58C592.551 246.085 591.821 245.58 591.765 243.391C592.719 244.121 593.674 244.85 594.628 245.524C595.246 244.738 595.863 244.064 596.986 244.962C597.379 245.243 598.222 245.019 598.839 245.075C599.569 245.131 600.355 245.299 601.085 245.468C601.141 245.692 601.141 245.916 601.198 246.141C600.243 246.702 599.289 247.263 598.166 247.993ZM646.174 241.595C645.444 241.146 644.826 240.865 644.377 240.416C644.321 240.36 644.264 240.304 644.152 240.192L601.141 241.539C601.198 241.595 601.254 241.707 601.31 241.763C601.085 241.707 600.861 241.595 600.636 241.539L589.013 241.876C588.957 242.1 588.845 242.381 588.676 242.661V244.57V244.626V262.922C589.182 262.81 589.687 262.698 590.192 262.642C590.417 262.585 590.698 263.091 590.922 263.315C590.305 263.54 589.743 263.652 589.238 263.876C589.069 263.989 588.845 264.101 588.676 264.213V362.094L648.813 360.242V334.425L642.917 334.593C642.861 334.593 642.805 334.649 642.805 334.649V334.593L614.505 335.491V314.052L648.869 312.985V287.28L620.064 288.178C620.289 288.403 620.513 288.627 620.513 288.739C620.289 289.637 619.839 290.479 619.446 291.377C619.222 291.377 618.997 291.433 618.772 291.433C618.492 290.984 617.93 290.367 618.043 290.086C618.379 289.413 618.885 288.796 619.39 288.178L614.505 288.347V274.203C613.944 274.372 613.326 274.484 612.765 274.652C612.652 274.428 612.54 274.147 612.484 273.923C613.101 273.698 613.775 273.417 614.393 273.193C614.224 272.968 614.056 272.8 613.887 272.576C614.112 272.632 614.281 272.744 614.505 272.8V266.907L648.869 265.841V240.08L645.893 240.192C645.893 240.585 646.005 241.034 646.174 241.595Z" fill="white"/>
<path d="M686.096 365.574L688.623 365.518C688.118 365.181 687.5 364.788 686.882 364.395C686.658 364.844 686.433 365.293 686.096 365.574Z" fill="white"/>
<path d="M293.946 309.225C293.722 309.281 293.16 308.215 292.767 307.653C292.374 307.148 291.981 306.699 291.588 306.25C291.7 306.026 291.869 305.801 291.981 305.577C293.385 306.082 294.789 306.643 296.192 307.148C296.192 307.429 296.249 307.653 296.249 307.934C295.462 308.383 294.733 309 293.946 309.225ZM292.711 302.041C293.385 302.322 294.003 302.714 294.62 303.051C294.508 303.276 294.339 303.556 294.227 303.781C293.553 303.5 292.88 303.163 292.206 302.883C292.374 302.602 292.711 301.985 292.711 302.041ZM286.198 374.89C284.962 374.498 283.727 374.105 282.211 373.656C282.941 372.645 283.446 372.028 284.064 371.242C284.289 372.084 284.513 372.814 284.738 373.656C285.187 373.431 285.524 373.207 286.029 372.926C286.198 373.431 286.366 373.88 286.479 374.329C286.366 374.498 286.31 374.666 286.198 374.89ZM278.505 325.22L284.85 362.319L272.216 362.711L278.505 325.22ZM267.725 367.763C266.377 368.268 265.872 367.089 265.31 366.135C266.321 366.023 267.219 365.967 268.511 365.854C268.342 366.303 268.23 367.538 267.725 367.763ZM263.233 352.834C263.064 352.441 263.569 351.655 263.794 351.038C264.243 351.43 264.861 351.767 265.142 352.328C265.591 353.339 265.815 354.405 266.096 355.471C265.815 355.527 265.535 355.64 265.254 355.696C264.524 354.798 263.738 353.9 263.233 352.834ZM260.93 342.956C260.313 342.17 259.92 341.328 259.302 340.879C258.572 340.318 257.505 339.644 256.775 339.813C254.473 340.318 254.08 339.139 254.024 337.848C256.382 337.512 258.628 337.175 260.706 336.894C259.695 339.083 259.695 339.083 262.952 341.384C262.278 341.889 261.66 342.394 260.93 342.956ZM255.989 332.853C257.112 333.302 258.235 333.695 259.302 334.144C259.246 334.312 259.19 334.481 259.134 334.593C258.123 333.863 256.495 334.93 255.708 333.639C255.765 333.414 255.877 333.134 255.989 332.853ZM256.551 318.99C256.382 318.429 256.214 317.812 255.877 316.802C256.888 317.195 257.505 317.419 258.235 317.7C258.404 317.251 258.628 316.802 258.853 316.184C259.807 318.598 259.47 318.99 256.551 318.99ZM264.187 336.445C263.738 335.996 263.513 335.323 263.176 334.761C263.345 334.705 263.457 334.593 263.626 334.537C266.321 337.624 266.321 338.522 262.839 339.757C263.401 338.859 263.569 338.185 264.019 337.904C265.085 337.231 265.085 337.343 264.187 336.445ZM265.647 294.408C266.208 294.801 266.882 295.082 267.219 295.587C267.388 295.923 266.995 296.597 266.882 297.158C266.658 297.102 266.433 297.102 266.208 297.046C265.872 296.316 265.591 295.587 265.254 294.857C265.422 294.689 265.535 294.52 265.647 294.408ZM283.671 291.321C282.997 292.556 282.548 293.566 281.93 294.464C281.874 294.576 281.032 294.464 280.864 294.184C280.527 293.735 280.414 293.173 280.246 292.724C281.313 292.331 282.323 291.882 283.671 291.321ZM284.569 288.739C284.626 290.592 284.513 290.648 281.987 290.255C281.93 290.086 281.818 289.918 281.762 289.75C282.716 289.413 283.615 289.076 284.569 288.739ZM252.789 352.497C251.834 351.823 250.823 351.15 249.869 350.532C250.037 350.252 250.206 349.971 250.43 349.691C251.441 350.308 252.452 350.925 253.406 351.543C253.182 351.879 253.013 352.16 252.789 352.497ZM308.433 356.594C308.321 356.257 308.208 355.864 308.096 355.528C308.377 355.415 308.602 355.303 308.882 355.191L295.743 284.755L289.96 284.923C288.893 285.765 287.826 286.607 286.591 287.561C286.479 286.382 286.984 285.653 287.658 284.979L261.436 285.821L254.024 325.95H255.259C254.979 326.736 254.698 327.746 254.417 328.476C256.045 328.756 257.393 329.037 258.741 329.261C258.741 329.486 258.684 329.71 258.684 329.935C257.561 329.879 256.382 329.823 255.035 329.766C255.315 330.384 255.54 330.889 255.708 331.338C255.596 331.506 255.54 331.619 255.428 331.787C254.922 331.45 254.08 331.226 253.912 330.721C253.743 330.272 253.575 329.766 253.406 329.261L239.2 406.657L264.749 405.871L267.668 388.585L289.286 387.911L292.206 404.973L317.922 404.187L308.995 356.369C308.826 356.482 308.658 356.538 308.433 356.594Z" fill="white"/>
<path d="M369.636 303.388V304.454H370.254C370.366 303.837 370.085 303.556 369.636 303.388Z" fill="white"/>
<path d="M764.93 261.182C764.706 261.182 764.481 261.126 764.256 261.126V258.657C764.705 258.881 765.211 259.05 765.548 259.33C766.783 260.565 765.267 260.677 764.93 261.182ZM756.451 358.446C755.946 357.66 755.385 357.155 755.497 356.762C755.553 356.369 756.227 355.976 756.732 355.864C756.957 355.808 757.631 356.538 757.574 356.818C757.462 357.323 757.013 357.716 756.451 358.446ZM767.008 268.703C766.839 268.703 766.727 268.759 766.558 268.759C766.727 268.591 766.839 268.422 767.008 268.31V252.146L741.291 252.932V362.655C741.628 362.768 742.077 363.16 742.582 363.441C742.077 364.058 741.684 364.507 741.291 364.956V372.926L801.427 371.074V345.537L767.064 346.604V268.703H767.008Z" fill="white"/>
<path d="M371.321 297.495C371.04 297.27 370.759 296.765 370.815 296.428C370.815 296.148 371.321 295.699 371.545 295.755C371.882 295.811 372.331 296.148 372.5 296.485C372.781 297.102 372.893 297.775 373.118 298.673C372.331 298.168 371.77 297.888 371.321 297.495ZM346.222 348.4C345.997 348.4 345.773 348.456 345.548 348.456C345.267 348.007 344.706 347.389 344.818 347.109C345.211 346.267 345.885 345.537 346.446 344.808C346.727 345.144 347.345 345.537 347.289 345.762C347.008 346.716 346.559 347.558 346.222 348.4ZM342.179 338.69C342.684 338.241 343.19 337.568 343.807 337.343C344.369 337.119 345.099 337.231 345.716 337.231C345.548 337.792 345.492 338.41 345.155 338.802C344.257 339.7 343.414 339.644 342.179 338.69ZM339.259 330.945C339.877 330.721 340.551 330.44 341.168 330.215C341 329.991 340.831 329.823 340.663 329.598C341.281 329.823 341.954 330.103 342.572 330.328C342.572 330.496 342.628 330.72 342.628 330.889C341.617 331.169 340.551 331.45 339.54 331.731C339.428 331.45 339.372 331.17 339.259 330.945ZM336.339 335.996C336.339 335.828 336.339 335.603 336.339 335.435C337.126 335.379 337.968 335.154 338.642 335.379C339.035 335.491 339.091 336.501 339.428 337.512C337.968 336.782 337.126 336.389 336.339 335.996ZM333.42 315.342C333.251 314.388 333.083 313.434 332.858 312.199C333.813 312.536 334.43 312.705 335.385 313.041C334.655 313.939 334.037 314.669 333.42 315.342ZM326.906 294.296C328.029 294.464 329.04 294.632 330.051 294.745C328.085 296.821 327.692 296.709 326.906 294.296ZM366.323 371.467C366.66 371.523 366.997 371.523 367.39 371.579C367.334 372.421 367.222 373.319 367.166 374.161C366.829 374.161 366.548 374.105 366.211 374.105C366.267 373.207 366.323 372.309 366.323 371.467ZM392.77 344.078C393.163 344.134 393.5 344.583 394.061 344.976C393.556 345.481 393.275 345.762 392.995 346.099C392.658 345.706 392.208 345.369 391.984 344.864C391.928 344.752 392.545 344.078 392.77 344.078ZM343.863 262.361L326.682 280.096V296.99C327.187 297.326 327.692 297.888 328.198 298.842C327.636 298.673 327.131 298.505 326.682 298.337V302.209C327.131 302.265 327.58 302.378 327.973 302.434C328.029 302.658 328.029 302.883 328.085 303.107C327.636 303.388 327.131 303.669 326.682 304.005V365.854L343.863 382.523L378.171 381.457L381.596 377.977C381.484 377.697 381.372 377.36 381.428 377.192C381.652 376.686 382.158 376.237 382.663 376.013C382.775 375.957 383 376.125 383.224 376.294L395.353 363.778V316.577L361.045 317.644V343.348L369.58 343.068V355.864L352.398 356.425V287.841L369.58 287.28V301.985C370.535 301.648 371.489 301.367 372.444 301.031C372.556 301.143 372.612 301.255 372.724 301.367C372.107 301.816 371.433 302.265 371.096 302.546C371.152 303.163 371.152 303.781 371.208 304.342L372.5 304.286C372.837 303.949 373.174 303.612 373.623 303.388C373.791 303.332 374.184 303.893 374.521 304.23L395.409 303.556V277.851L378.227 261.182L343.863 262.361Z" fill="white"/>
<path d="M686.826 294.745C686.658 294.633 686.096 294.24 685.31 293.678C687.612 292.556 688.23 288.964 691.655 290.592C690.139 291.882 688.567 293.229 686.826 294.745ZM689.241 269.769C689.353 270.667 689.521 271.565 689.634 272.463C689.241 272.407 688.455 272.463 688.455 272.351C688.286 271.565 688.286 270.724 688.23 269.882C688.567 269.826 688.904 269.769 689.241 269.769ZM726.019 363.104C724.11 364.395 723.155 364.171 722.2 362.094C723.717 362.543 724.671 362.768 726.019 363.104ZM680.313 359.007C679.976 358.165 679.695 357.324 679.358 356.482C679.583 356.426 679.807 356.313 680.032 356.257C680.65 356.706 681.324 357.155 682.278 357.829C681.717 358.109 681.043 358.558 680.313 359.007ZM675.203 365.293V356.874C675.372 356.874 675.54 356.818 675.709 356.818C676.439 358.221 677.168 359.568 677.955 361.028H675.428C679.414 363.048 675.54 363.946 675.203 365.293ZM677.112 347.838C677.337 348.063 677.561 348.231 677.842 348.456C677.225 349.185 676.607 349.915 675.933 350.589C675.933 350.589 675.428 350.196 675.147 349.971C675.765 349.242 676.439 348.568 677.112 347.838ZM672.003 303.556C672.452 303.5 673.013 303.332 673.406 303.444C674.024 303.612 674.529 304.005 675.091 304.286V306.25C674.193 305.801 673.238 305.408 672.396 304.847C672.115 304.623 672.115 304.005 672.003 303.556ZM692.441 245.468L666.725 246.253V287.673C666.837 287.785 666.949 287.898 667.118 288.01C666.949 288.178 666.837 288.29 666.725 288.403V366.247L684.243 365.686C683.289 365.181 683.682 364.339 683.794 363.497C683.85 363.16 683.401 362.768 683.12 362.262C683.289 361.87 683.626 361.252 683.963 360.635C686.265 361.364 684.019 363.217 684.917 364.339H686.939C687.163 364.283 687.444 364.227 688.061 364.002C687.219 363.609 686.714 363.385 685.816 362.992C686.265 362.206 686.545 361.028 687.107 360.859C687.837 360.635 688.791 361.252 689.578 361.757C692.778 361.477 692.778 361.477 696.035 363.609C695.08 363.778 694.238 363.946 693.003 364.115C693.452 364.62 693.789 364.956 694.182 365.405L698.337 365.293C697.214 365.181 697.382 364.788 697.775 363.609C698.73 363.666 699.628 363.722 700.864 363.778V365.237L703.11 365.181C703.11 365.125 703.11 365.069 703.053 365.013C703.896 364.788 704.738 364.564 705.58 364.339C705.636 364.62 705.693 364.844 705.749 365.125L707.939 365.069C707.882 364.956 707.826 364.844 707.77 364.732H713.722C713.666 364.788 713.61 364.844 713.553 364.9L726.749 364.507V338.971L692.385 340.037V245.468H692.441Z" fill="white"/>
</svg>

